<?xml version="1.0" encoding="UTF-8"?>
<svg width="960" height="1080" viewBox="0 0 960 1080" version="1.1" xmlns="http://www.w3.org/2000/svg">
  <defs>
    <linearGradient x1="0%" y1="0%" x2="100%" y2="100%" id="banner-gradient">
      <stop stop-color="#65b670" offset="0%"></stop>
      <stop stop-color="#2b9939" offset="100%"></stop>
    </linearGradient>
    <filter id="glow" x="-50%" y="-50%" width="200%" height="200%">
      <feGaussianBlur in="SourceGraphic" stdDeviation="3" result="blur" />
      <feComposite in="SourceGraphic" in2="blur" operator="over" />
    </filter>
  </defs>
  
  <!-- 背景 -->
  <rect width="960" height="1080" fill="url(#banner-gradient)"/>
  
  <!-- 装饰图案 -->
  <g transform="translate(480, 540)" fill="#FFFFFF" fill-opacity="0.1">
    <!-- 中药材图案 -->
    <g filter="url(#glow)">
      <!-- 当归 -->
      <path d="M-100,-100 C-80,-150 -20,-150 0,-100" 
            stroke="#FFFFFF" stroke-width="8" fill="none" stroke-opacity="0.3"/>
      <path d="M0,-100 C20,-150 80,-150 100,-100" 
            stroke="#FFFFFF" stroke-width="8" fill="none" stroke-opacity="0.3"/>
      
      <!-- 枸杞 -->
      <circle cx="50" cy="50" r="15" fill="#FFFFFF" fill-opacity="0.3"/>
      <circle cx="-30" cy="70" r="12" fill="#FFFFFF" fill-opacity="0.3"/>
      <circle cx="70" cy="-30" r="10" fill="#FFFFFF" fill-opacity="0.3"/>
      
      <!-- 装饰线条 -->
      <path d="M-200,0 C-150,50 -100,50 -50,0 C0,-50 50,-50 100,0" 
            stroke="#FFFFFF" stroke-width="4" fill="none" stroke-opacity="0.2"/>
      <path d="M200,0 C150,-50 100,-50 50,0 C0,50 -50,50 -100,0" 
            stroke="#FFFFFF" stroke-width="4" fill="none" stroke-opacity="0.2"/>
    </g>
    
    <!-- 圆形装饰 -->
    <circle cx="-150" cy="-150" r="20" fill="#FFFFFF" fill-opacity="0.1"/>
    <circle cx="150" cy="150" r="20" fill="#FFFFFF" fill-opacity="0.1"/>
    <circle cx="0" cy="0" r="250" fill="none" stroke="#FFFFFF" 
            stroke-width="2" stroke-opacity="0.1"/>
  </g>
  
  <!-- 波浪装饰 -->
  <path d="M0,1080 C240,1000 480,960 720,960 C960,960 960,1000 960,1080" 
        fill="#FFFFFF" fill-opacity="0.1"/>
  <path d="M0,1080 C240,1020 480,990 720,990 C960,990 960,1020 960,1080" 
        fill="#FFFFFF" fill-opacity="0.15"/>
  
  <!-- 动态效果 -->
  <g transform="translate(480, 540)">
    <circle r="180" fill="none" stroke="#FFFFFF" stroke-width="1" stroke-opacity="0.2">
      <animate attributeName="r" values="170;190;170" dur="4s" repeatCount="indefinite"/>
      <animate attributeName="stroke-opacity" values="0.2;0.1;0.2" dur="4s" repeatCount="indefinite"/>
    </circle>
  </g>
</svg> 